<?xml version="1.0" standalone="no"?>
<!DOCTYPE svg PUBLIC "-//W3C//DTD SVG 20010904//EN"
 "http://www.w3.org/TR/2001/REC-SVG-20010904/DTD/svg10.dtd">
<svg version="1.0" xmlns="http://www.w3.org/2000/svg"
 width="128.000000pt" height="128.000000pt" viewBox="0 0 128.000000 128.000000"
 preserveAspectRatio="xMidYMid meet">

<g transform="translate(0.000000,128.000000) scale(0.100000,-0.100000)"
fill="#000000" stroke="none">
<path d="M569 1210 c-51 -9 -143 -46 -158 -64 -6 -7 -6 -17 -1 -26 8 -13 14
-13 42 2 166 85 355 53 472 -80 90 -102 96 -133 96 -499 l0 -303 -380 0 -380
0 0 303 c0 313 7 375 46 432 18 25 18 41 -1 49 -23 8 -64 -65 -81 -142 -10
-49 -14 -146 -14 -354 0 -272 -1 -288 -18 -288 -33 0 -64 -45 -70 -100 -8 -86
-45 -80 518 -80 563 0 526 -6 518 80 -6 55 -37 100 -70 100 -17 0 -18 16 -18
284 0 214 -4 302 -15 356 -30 142 -138 263 -281 313 -53 19 -149 27 -205 17z
m529 -1022 c7 -7 12 -27 12 -45 l0 -33 -470 0 -470 0 0 33 c0 18 5 38 12 45
17 17 899 17 916 0z"/>
<path d="M333 1084 c-9 -23 13 -40 32 -24 12 10 13 16 4 26 -15 18 -28 18 -36
-2z"/>
<path d="M414 857 c-2 -7 -3 -58 -2 -113 3 -91 5 -99 23 -99 16 0 21 8 23 38
4 46 19 44 45 -6 19 -38 43 -48 53 -23 3 8 -2 26 -11 40 -16 24 -16 27 4 52
27 34 27 64 0 98 -18 22 -28 26 -75 26 -36 0 -56 -4 -60 -13z m100 -43 c22
-21 4 -54 -29 -54 -22 0 -25 4 -25 35 0 28 4 35 19 35 11 0 27 -7 35 -16z"/>
<path d="M622 758 c2 -93 6 -113 18 -113 12 0 16 20 18 113 3 107 2 112 -18
112 -20 0 -21 -5 -18 -112z"/>
<path d="M714 857 c-2 -7 -3 -58 -2 -113 2 -80 6 -99 18 -99 10 0 17 13 20 35
5 31 9 35 43 41 71 11 95 66 52 117 -23 28 -33 32 -76 32 -32 0 -51 -5 -55
-13z m97 -43 c17 -21 0 -49 -32 -49 -24 0 -36 23 -25 51 7 19 40 18 57 -2z"/>
<path d="M824 675 c-7 -18 3 -35 21 -35 21 0 28 19 15 35 -16 19 -29 19 -36 0z"/>
<path d="M510 489 c0 -25 33 -22 38 4 2 12 -3 17 -17 17 -15 0 -21 -6 -21 -21z"/>
<path d="M600 490 c0 -20 5 -21 88 -18 69 2 87 6 87 18 0 12 -18 16 -87 18
-83 3 -88 2 -88 -18z"/>
<path d="M442 358 l3 -63 195 0 195 0 3 63 3 62 -201 0 -201 0 3 -62z m356 0
c-3 -23 -5 -23 -158 -23 -153 0 -155 0 -158 23 l-3 22 161 0 161 0 -3 -22z"/>
</g>
</svg>
