<?xml version="1.0" standalone="no"?>
<!DOCTYPE svg PUBLIC "-//W3C//DTD SVG 20010904//EN"
 "http://www.w3.org/TR/2001/REC-SVG-20010904/DTD/svg10.dtd">
<svg version="1.0" xmlns="http://www.w3.org/2000/svg"
 width="128.000000pt" height="128.000000pt" viewBox="0 0 128.000000 128.000000"
 preserveAspectRatio="xMidYMid meet">

<g transform="translate(0.000000,128.000000) scale(0.100000,-0.100000)"
fill="#000000" stroke="none">
<path d="M564 881 c-44 -20 -81 -60 -90 -98 -9 -34 3 -70 26 -76 16 -4 20 -13
20 -50 0 -30 7 -53 21 -71 11 -14 18 -30 14 -35 -3 -5 -44 -24 -91 -42 -93
-35 -134 -62 -134 -86 0 -13 5 -12 24 6 28 27 140 74 144 61 2 -5 -4 -22 -13
-39 l-15 -31 67 -33 66 -34 1 -44 c1 -39 4 -44 26 -47 22 -2 23 -1 8 8 -10 6
-18 22 -18 35 0 21 14 32 90 70 l90 45 -15 31 c-9 17 -15 34 -13 39 4 13 116
-34 144 -61 19 -18 24 -19 24 -6 0 24 -41 51 -134 86 -47 18 -88 36 -91 41 -3
5 3 22 14 37 15 22 20 52 25 136 7 123 1 142 -49 163 -46 19 -92 17 -141 -5z
m152 -26 c18 -11 24 -25 24 -50 l0 -35 -81 0 c-72 0 -80 2 -69 15 7 9 10 18 6
22 -9 10 -43 -26 -50 -53 -7 -27 -43 -33 -52 -9 -8 19 12 68 36 90 48 44 136
53 186 20z m14 -115 c0 -6 -35 -10 -86 -10 -54 0 -83 4 -79 10 3 6 42 10 86
10 46 0 79 -4 79 -10z m0 -80 c0 -58 -26 -80 -95 -80 -69 0 -95 22 -95 80 l0
40 95 0 95 0 0 -40z m-40 -121 c0 -19 -20 -29 -55 -29 -35 0 -55 10 -55 29 0
13 11 16 55 16 44 0 55 -3 55 -16z m-124 -46 c4 -16 18 -50 31 -76 l24 -48
-61 31 c-33 17 -60 33 -60 36 0 14 42 84 50 84 5 0 13 -12 16 -27z m174 8 c35
-66 34 -69 -31 -101 l-60 -31 24 48 c13 26 27 60 31 76 8 32 21 35 36 8z m-65
-21 c-3 -5 -21 -10 -40 -10 -19 0 -37 5 -40 10 -4 6 12 10 40 10 28 0 44 -4
40 -10z m-15 -41 c0 -6 -5 -19 -11 -30 -10 -20 -11 -20 -24 -2 -22 27 -18 43
10 43 14 0 25 -5 25 -11z"/>
<path d="M626 834 c-10 -26 19 -52 42 -38 9 6 17 20 17 30 0 26 -50 32 -59 8z
m44 -8 c0 -3 -4 -8 -10 -11 -5 -3 -10 -1 -10 4 0 6 5 11 10 11 6 0 10 -2 10
-4z"/>
<path d="M395 350 c3 -5 35 -10 71 -10 71 0 88 -17 22 -22 -41 -3 -42 -4 -18
-14 14 -6 37 -14 53 -18 26 -6 27 -5 27 34 l0 40 -81 0 c-51 0 -78 -4 -74 -10z"/>
<path d="M720 320 c0 -39 1 -40 28 -34 15 4 38 13 52 20 24 13 24 13 -17 14
-24 0 -43 5 -43 10 0 6 28 10 64 10 36 0 68 5 71 10 4 6 -23 10 -74 10 l-81 0
0 -40z"/>
</g>
</svg>
