<?xml version="1.0" standalone="no"?>
<!DOCTYPE svg PUBLIC "-//W3C//DTD SVG 20010904//EN"
 "http://www.w3.org/TR/2001/REC-SVG-20010904/DTD/svg10.dtd">
<svg version="1.0" xmlns="http://www.w3.org/2000/svg"
 width="128.000000pt" height="128.000000pt" viewBox="0 0 128.000000 128.000000"
 preserveAspectRatio="xMidYMid meet">

<g transform="translate(0.000000,128.000000) scale(0.100000,-0.100000)"
fill="#000000" stroke="none">
<path d="M174 1173 c-12 -2 -32 -15 -45 -29 l-24 -26 -3 -454 c-2 -399 -1
-458 13 -488 19 -39 31 -44 231 -111 136 -44 143 -46 177 -32 42 18 50 30 57
87 l5 45 96 5 c106 6 136 19 169 73 17 27 20 51 20 158 0 131 -5 149 -45 149
-39 0 -45 -18 -45 -135 0 -147 -2 -150 -112 -150 l-83 0 -3 380 -2 379 -27 28
-27 28 112 0 c139 0 142 -3 142 -130 0 -91 8 -110 45 -110 39 0 45 19 45 130
0 125 -15 160 -83 190 -38 18 -66 19 -317 18 -151 0 -285 -3 -296 -5z"/>
<path d="M991 922 c-17 -14 -21 -30 -23 -97 l-3 -80 -104 -3 c-110 -3 -131
-10 -131 -46 0 -40 18 -46 132 -46 l108 0 0 -83 c0 -88 8 -107 45 -107 32 0
245 212 245 243 0 15 -191 207 -222 223 -23 12 -29 12 -47 -4z"/>
</g>
</svg>
