<?xml version="1.0" standalone="no"?>
<!DOCTYPE svg PUBLIC "-//W3C//DTD SVG 20010904//EN"
 "http://www.w3.org/TR/2001/REC-SVG-20010904/DTD/svg10.dtd">
<svg version="1.0" xmlns="http://www.w3.org/2000/svg"
 width="128.000000pt" height="128.000000pt" viewBox="0 0 128.000000 128.000000"
 preserveAspectRatio="xMidYMid meet">

<g transform="translate(0.000000,128.000000) scale(0.100000,-0.100000)"
fill="#000000" stroke="none">
<path d="M530 1208 c-115 -50 -151 -71 -195 -116 -138 -139 -159 -341 -55
-529 25 -45 53 -92 62 -103 10 -11 18 -25 18 -30 0 -6 4 -10 9 -10 5 0 11 -8
14 -17 7 -20 107 -173 180 -276 40 -56 53 -67 77 -67 24 0 37 11 77 67 73 103
173 256 180 276 3 9 9 17 14 17 5 0 9 4 9 10 0 5 8 19 18 30 44 52 108 188
120 255 48 269 -151 507 -423 504 -44 0 -91 -5 -105 -11z m195 -62 c122 -26
209 -103 260 -231 34 -87 32 -167 -9 -265 -25 -57 -100 -186 -117 -200 -3 -3
-44 -63 -90 -135 -46 -72 -92 -139 -101 -149 -10 -11 -18 -23 -18 -28 0 -18
-17 -6 -35 25 -10 17 -22 34 -25 37 -4 3 -42 59 -85 125 -43 66 -80 122 -84
125 -17 13 -92 142 -117 200 -41 98 -43 178 -9 265 50 125 138 205 255 231 72
16 103 16 175 0z"/>
<path d="M561 1006 c-155 -56 -200 -251 -87 -374 80 -88 252 -88 332 0 64 69
82 172 45 254 -47 104 -181 160 -290 120z m166 -71 c48 -29 71 -65 79 -128 8
-55 -20 -114 -73 -154 -52 -40 -134 -40 -186 0 -53 40 -81 99 -73 155 17 127
143 191 253 127z"/>
</g>
</svg>
