<?xml version="1.0" standalone="no"?>
<!DOCTYPE svg PUBLIC "-//W3C//DTD SVG 20010904//EN"
 "http://www.w3.org/TR/2001/REC-SVG-20010904/DTD/svg10.dtd">
<svg version="1.0" xmlns="http://www.w3.org/2000/svg"
 width="128.000000pt" height="128.000000pt" viewBox="0 0 128.000000 128.000000"
 preserveAspectRatio="xMidYMid meet">

<g transform="translate(0.000000,128.000000) scale(0.100000,-0.100000)"
fill="#000000" stroke="none">
<path d="M575 1173 c-99 -27 -177 -97 -201 -180 -20 -69 -12 -102 32 -123 30
-14 32 -18 36 -85 5 -69 25 -119 55 -138 7 -4 13 -18 13 -31 0 -26 -13 -33
-168 -90 -116 -43 -199 -92 -219 -129 -10 -21 -15 -67 -16 -160 l-2 -132 535
0 535 0 -2 132 c-1 93 -6 139 -16 160 -21 39 -105 87 -242 138 -64 24 -123 49
-131 55 -17 15 -18 46 -1 57 7 4 21 21 32 38 15 25 20 60 27 208 9 171 8 180
-12 211 -11 19 -37 42 -58 52 -37 17 -158 28 -197 17z m186 -56 c45 -30 62
-68 54 -118 l-7 -39 -134 0 c-74 0 -134 2 -134 5 0 3 11 16 25 29 21 20 23 25
11 35 -20 16 -57 -22 -80 -82 -19 -50 -43 -65 -76 -47 -37 20 -19 108 34 162
55 57 109 78 197 78 63 0 82 -4 110 -23z m39 -207 c0 -19 -7 -20 -140 -20
-110 0 -140 3 -140 13 0 8 3 17 7 20 3 4 66 7 140 7 126 0 133 -1 133 -20z m0
-114 c0 -70 -25 -120 -70 -143 -32 -16 -148 -16 -180 0 -45 23 -70 73 -70 143
l0 64 160 0 160 0 0 -64z m-70 -212 c0 -34 -27 -49 -90 -49 -63 0 -90 15 -90
49 0 20 5 21 90 21 85 0 90 -1 90 -21z m-202 -86 c6 -28 28 -83 47 -121 20
-38 34 -71 33 -72 -4 -4 -170 74 -185 86 -8 8 -3 27 19 77 45 100 67 108 86
30z m268 44 c7 -4 25 -37 42 -74 22 -49 27 -69 19 -76 -16 -13 -180 -92 -184
-89 -1 2 13 35 33 74 19 39 40 94 47 122 11 50 20 58 43 43z m-392 -69 c-30
-72 -34 -85 -28 -94 3 -5 52 -32 110 -60 l104 -51 0 -64 0 -64 -45 0 -44 0 -3
67 -3 68 -160 0 -160 0 -3 -67 c-2 -52 -6 -68 -17 -68 -12 0 -15 20 -15 109 0
103 2 111 26 140 21 26 77 57 194 109 14 6 33 11 43 11 16 1 16 -1 1 -36z
m316 27 c-1 -25 -24 -35 -80 -35 -56 0 -79 10 -80 35 0 3 36 5 80 5 44 0 80
-2 80 -5z m206 -6 c96 -39 165 -78 189 -105 23 -29 25 -37 25 -140 0 -89 -3
-109 -15 -109 -11 0 -15 16 -17 68 l-3 67 -160 0 -160 0 -3 -68 -3 -67 -80 0
-80 0 3 46 3 47 133 67 c73 37 137 71 143 77 10 10 8 18 -25 96 -19 43 -12 47
50 21z m-236 -73 c0 -8 -44 -81 -49 -81 -8 0 -29 34 -40 63 -8 21 -6 22 40 22
27 0 49 -2 49 -4z m-230 -196 c0 -13 -21 -15 -125 -15 -104 0 -125 2 -125 15
0 13 21 15 125 15 104 0 125 -2 125 -15z m610 0 c0 -13 -21 -15 -125 -15 -104
0 -125 2 -125 15 0 13 21 15 125 15 104 0 125 -2 125 -15z m-610 -70 c0 -13
-21 -15 -125 -15 -104 0 -125 2 -125 15 0 13 21 15 125 15 104 0 125 -2 125
-15z m610 0 c0 -13 -21 -15 -125 -15 -104 0 -125 2 -125 15 0 13 21 15 125 15
104 0 125 -2 125 -15z"/>
<path d="M640 1090 c-24 -24 -25 -38 -4 -68 18 -27 55 -29 77 -4 23 26 21 58
-5 76 -30 21 -44 20 -68 -4z m50 -35 c0 -8 -7 -15 -15 -15 -8 0 -15 7 -15 15
0 8 7 15 15 15 8 0 15 -7 15 -15z"/>
</g>
</svg>
