<?xml version="1.0" standalone="no"?>
<!DOCTYPE svg PUBLIC "-//W3C//DTD SVG 20010904//EN"
 "http://www.w3.org/TR/2001/REC-SVG-20010904/DTD/svg10.dtd">
<svg version="1.0" xmlns="http://www.w3.org/2000/svg"
 width="128.000000pt" height="128.000000pt" viewBox="0 0 128.000000 128.000000"
 preserveAspectRatio="xMidYMid meet">

<g transform="translate(0.000000,128.000000) scale(0.100000,-0.100000)"
fill="#000000" stroke="none">
<path d="M492 1062 c-113 -41 -211 -132 -264 -247 -19 -43 -23 -66 -23 -170 0
-117 1 -123 34 -189 43 -88 120 -165 208 -208 66 -32 72 -33 188 -33 116 0
123 1 189 34 88 43 165 120 208 208 32 66 33 72 33 188 0 116 -1 123 -34 189
-43 88 -120 165 -208 207 -61 30 -78 34 -173 36 -83 3 -116 0 -158 -15z m268
-59 c127 -43 227 -163 249 -303 33 -201 -111 -396 -317 -429 -295 -47 -528
265 -400 536 30 65 99 135 166 171 97 52 197 60 302 25z"/>
<path d="M544 881 c-50 -23 -88 -71 -104 -129 -19 -74 -7 -107 102 -274 92
-142 94 -142 186 0 80 123 97 154 107 199 9 46 -18 132 -52 165 -61 58 -161
74 -239 39z m170 -15 c68 -28 108 -115 92 -200 -6 -31 -157 -276 -171 -276
-14 0 -165 245 -171 276 -16 84 20 164 88 197 41 20 117 22 162 3z"/>
<path d="M581 796 c-31 -17 -50 -53 -51 -94 0 -49 54 -102 105 -102 49 0 105
53 105 99 0 86 -85 138 -159 97z m105 -30 c58 -49 25 -140 -51 -140 -76 0
-109 91 -51 140 15 13 38 24 51 24 13 0 36 -11 51 -24z"/>
</g>
</svg>
