<?xml version="1.0" standalone="no"?>
<!DOCTYPE svg PUBLIC "-//W3C//DTD SVG 20010904//EN"
 "http://www.w3.org/TR/2001/REC-SVG-20010904/DTD/svg10.dtd">
<svg version="1.0" xmlns="http://www.w3.org/2000/svg"
 width="128.000000pt" height="128.000000pt" viewBox="0 0 128.000000 128.000000"
 preserveAspectRatio="xMidYMid meet">

<g transform="translate(0.000000,128.000000) scale(0.100000,-0.100000)"
fill="#000000" stroke="none">
<path d="M492 1062 c-113 -41 -211 -132 -264 -247 -19 -43 -23 -66 -23 -170 0
-117 1 -123 34 -189 43 -88 120 -165 208 -208 66 -32 72 -33 188 -33 116 0
123 1 189 34 88 43 165 120 208 208 32 66 33 72 33 188 0 116 -1 123 -34 189
-43 88 -120 165 -208 207 -61 30 -78 34 -173 36 -83 3 -116 0 -158 -15z m268
-59 c167 -56 281 -247 249 -419 -12 -65 -37 -127 -48 -120 -4 3 -19 54 -32
112 -39 177 -106 259 -223 271 -61 6 -177 -24 -217 -56 -37 -30 -15 -36 23 -7
88 67 224 62 301 -12 42 -39 52 -64 91 -218 l35 -139 -36 -37 c-97 -99 -255
-136 -395 -92 -12 3 -25 40 -47 132 -40 166 -45 202 -32 234 7 19 7 29 -1 34
-35 22 -37 -104 -3 -244 14 -57 25 -107 25 -113 0 -37 -108 64 -148 138 -99
186 -30 412 156 511 97 52 197 60 302 25z"/>
<path d="M430 730 c0 -5 7 -10 15 -10 8 0 15 5 15 10 0 6 -7 10 -15 10 -8 0
-15 -4 -15 -10z"/>
<path d="M694 656 c-8 -20 20 -119 35 -124 10 -3 12 2 8 17 -4 17 0 24 18 31
28 11 40 42 25 70 -13 24 -77 29 -86 6z m66 -31 c0 -8 -9 -15 -20 -15 -11 0
-20 7 -20 15 0 8 9 15 20 15 11 0 20 -7 20 -15z"/>
<path d="M638 644 c-7 -7 21 -116 33 -128 13 -14 12 22 -3 83 -11 48 -17 58
-30 45z"/>
<path d="M523 619 c-7 -7 -8 -22 -3 -42 4 -18 11 -44 14 -59 4 -16 13 -28 22
-28 11 0 13 6 9 20 -8 24 2 26 27 3 22 -20 37 -9 21 16 -6 9 -9 29 -6 44 3 15
0 34 -7 42 -15 17 -61 20 -77 4z m60 -26 c8 -7 -11 -33 -24 -33 -5 0 -9 9 -9
20 0 19 20 27 33 13z"/>
<path d="M786 561 c-4 -7 -5 -15 -2 -18 9 -9 19 4 14 18 -4 11 -6 11 -12 0z"/>
<path d="M722 446 c-24 -6 -42 -15 -40 -21 4 -12 68 -9 81 4 20 20 1 27 -41
17z"/>
<path d="M620 410 c0 -5 5 -10 10 -10 6 0 10 5 10 10 0 6 -4 10 -10 10 -5 0
-10 -4 -10 -10z"/>
<path d="M692 383 l-103 -25 6 -31 c4 -18 10 -35 14 -40 10 -10 125 17 186 43
35 15 45 24 41 36 -3 9 -6 22 -6 30 0 19 -16 17 -138 -13z m118 -17 c0 -8 -28
-19 -82 -31 -46 -10 -89 -20 -95 -22 -7 -3 -13 1 -13 9 0 9 28 21 83 35 101
26 107 26 107 9z"/>
</g>
</svg>
