<?xml version="1.0" standalone="no"?>
<!DOCTYPE svg PUBLIC "-//W3C//DTD SVG 20010904//EN"
 "http://www.w3.org/TR/2001/REC-SVG-20010904/DTD/svg10.dtd">
<svg version="1.0" xmlns="http://www.w3.org/2000/svg"
 width="128.000000pt" height="128.000000pt" viewBox="0 0 128.000000 128.000000"
 preserveAspectRatio="xMidYMid meet">

<g transform="translate(0.000000,128.000000) scale(0.100000,-0.100000)"
fill="#000000" stroke="none">
<path d="M573 788 c-11 -13 -23 -32 -27 -42 -7 -22 11 -86 25 -86 18 0 8 -17
-17 -28 -18 -9 -31 -9 -45 -1 -19 10 -19 12 -5 28 23 25 20 58 -9 86 -57 58
-148 -2 -112 -75 13 -25 12 -29 -20 -59 -27 -26 -34 -39 -31 -64 l3 -32 68 -3
c62 -3 67 -5 67 -25 0 -13 7 -33 16 -45 14 -21 22 -22 149 -22 127 0 135 1
149 22 9 12 16 32 16 45 0 20 5 22 68 25 l67 3 3 32 c3 25 -4 38 -31 64 -32
30 -33 34 -20 59 36 73 -55 133 -112 75 -29 -28 -32 -61 -9 -86 14 -16 14 -18
-5 -29 -16 -8 -27 -8 -43 1 -33 17 -33 17 -13 39 26 29 23 85 -6 116 -31 33
-97 34 -126 2z m106 -12 c38 -30 28 -97 -18 -116 -38 -15 -75 1 -91 39 -11 26
-10 35 4 56 27 42 68 50 105 21z m-197 -43 c22 -20 23 -46 2 -67 -22 -23 -60
-20 -78 6 -20 29 -20 34 4 58 24 24 47 25 72 3z m370 5 c42 -34 18 -91 -35
-86 -42 4 -60 47 -32 78 21 23 44 26 67 8z m-373 -119 c18 -6 30 -16 27 -23
-28 -67 -27 -66 -98 -66 -38 0 -68 2 -68 5 0 22 37 69 63 80 39 17 37 17 76 4z
m228 -9 c39 -24 59 -54 68 -102 6 -29 3 -40 -14 -57 -19 -19 -33 -21 -124 -21
-128 0 -152 12 -144 72 14 104 127 162 214 108z m158 6 c28 -12 65 -58 65 -81
0 -3 -31 -5 -68 -5 l-68 0 -18 36 c-19 41 -19 39 14 53 34 13 36 13 75 -3z"/>
<path d="M300 365 c0 -20 94 -93 160 -124 50 -23 67 -26 175 -26 109 0 125 2
175 26 57 27 160 103 160 118 0 18 -58 17 -82 -1 -47 -38 -138 -77 -198 -87
-96 -16 -181 4 -275 64 -59 38 -115 52 -115 30z"/>
</g>
</svg>
