<?xml version="1.0" standalone="no"?>
<!DOCTYPE svg PUBLIC "-//W3C//DTD SVG 20010904//EN"
 "http://www.w3.org/TR/2001/REC-SVG-20010904/DTD/svg10.dtd">
<svg version="1.0" xmlns="http://www.w3.org/2000/svg"
 width="128.000000pt" height="128.000000pt" viewBox="0 0 128.000000 128.000000"
 preserveAspectRatio="xMidYMid meet">

<g transform="translate(0.000000,128.000000) scale(0.100000,-0.100000)"
fill="#000000" stroke="none">
<path d="M562 989 c-100 -50 -123 -190 -44 -267 13 -13 23 -24 21 -25 -87 -47
-97 -49 -123 -32 -14 10 -26 18 -26 19 0 1 9 21 20 44 24 50 25 70 4 121 -20
52 -84 86 -141 76 -47 -8 -64 -20 -92 -65 -26 -44 -27 -94 -1 -143 11 -20 16
-37 12 -37 -18 0 -100 -87 -116 -123 -9 -21 -16 -54 -14 -75 l3 -37 131 -3
131 -3 6 -40 c6 -48 40 -100 75 -117 36 -17 428 -17 463 0 38 18 69 71 69 118
l0 39 138 3 137 3 3 37 c5 63 -41 138 -117 191 -24 16 -24 17 -7 36 41 46 29
140 -25 190 -58 54 -173 25 -203 -50 -21 -51 -20 -71 4 -121 11 -23 20 -43 20
-44 0 -1 -12 -9 -26 -19 -25 -16 -28 -16 -72 7 -26 12 -49 24 -51 25 -2 2 7
14 22 27 25 23 47 80 47 123 0 42 -41 109 -83 137 -51 32 -106 34 -165 5z
m163 -64 c44 -46 52 -83 26 -133 -49 -97 -157 -103 -218 -12 -27 38 -29 70 -8
110 25 48 62 70 118 70 44 0 53 -4 82 -35z m-363 -78 c28 -35 23 -84 -11 -118
-40 -40 -90 -36 -128 11 -16 20 -16 80 1 102 31 42 107 44 138 5z m654 23 c37
-15 53 -38 53 -80 0 -38 -12 -58 -47 -77 -31 -18 -55 -16 -85 7 -69 54 -43
146 45 159 4 1 19 -4 34 -9z m-260 -232 c81 -40 134 -131 134 -229 0 -39 -4
-51 -26 -68 -25 -20 -39 -21 -218 -21 -105 0 -201 3 -214 6 -77 21 -58 181 33
269 78 76 191 93 291 43z m-408 7 c28 -9 54 -20 57 -25 3 -5 -6 -25 -20 -46
-14 -21 -28 -48 -31 -61 -6 -22 -9 -23 -125 -23 -135 0 -137 2 -94 70 32 51
97 93 151 99 6 0 33 -6 62 -14z m737 -24 c37 -25 84 -91 85 -118 0 -10 -30
-13 -119 -13 l-119 0 -11 30 c-5 17 -20 44 -31 60 -12 17 -19 34 -15 40 11 17
99 39 135 34 19 -3 53 -18 75 -33z"/>
</g>
</svg>
