<?xml version="1.0" standalone="no"?>
<!DOCTYPE svg PUBLIC "-//W3C//DTD SVG 20010904//EN"
 "http://www.w3.org/TR/2001/REC-SVG-20010904/DTD/svg10.dtd">
<svg version="1.0" xmlns="http://www.w3.org/2000/svg"
 width="256.000000pt" height="256.000000pt" viewBox="0 0 256.000000 256.000000"
 preserveAspectRatio="xMidYMid meet">

<g transform="translate(0.000000,256.000000) scale(0.100000,-0.100000)"
fill="#000000" stroke="none">
<path d="M1380 2078 c-34 -19 -66 -45 -45 -36 43 18 105 50 105 53 0 10 -27 3
-60 -17z"/>
<path d="M999 1993 c-44 -34 -89 -91 -89 -112 0 -10 8 -4 19 14 27 44 71 83
71 63 0 -9 13 -30 29 -47 22 -23 37 -31 63 -30 18 0 26 3 18 6 -51 18 -79 37
-89 60 -12 25 -5 44 24 65 6 5 6 8 -1 8 -6 0 -26 -12 -45 -27z"/>
<path d="M1353 1980 c-59 -36 -120 -105 -157 -181 -31 -62 -37 -84 -34 -125 4
-52 12 -45 23 19 8 52 33 74 93 82 105 14 190 -35 199 -116 4 -34 1 -50 -11
-61 -9 -9 -16 -21 -16 -27 0 -6 -3 -11 -7 -11 -5 0 -17 -19 -28 -43 -11 -23
-23 -44 -26 -47 -3 -3 -9 -15 -13 -27 -6 -19 -4 -22 10 -16 13 5 10 -4 -12
-35 -18 -25 -33 -37 -39 -31 -5 5 -22 9 -38 9 -56 0 -112 48 -123 106 -9 49
-21 50 -28 1 -4 -23 -22 -88 -41 -145 -40 -116 -41 -127 -19 -136 24 -9 42 -7
26 2 -10 7 -6 28 17 97 17 49 35 93 40 98 5 5 19 -1 36 -15 14 -12 49 -27 77
-33 l50 -10 -69 -65 c-113 -107 -186 -158 -312 -220 -67 -33 -183 -70 -221
-70 -7 0 8 22 34 50 46 49 52 67 36 105 -7 16 -9 17 -9 3 -1 -9 -20 -37 -44
-63 -32 -36 -48 -46 -67 -44 l-25 4 27 25 c14 14 29 36 33 49 l7 24 -31 -22
c-17 -12 -33 -26 -36 -31 -11 -18 -90 -49 -99 -39 -11 10 -12 10 36 31 36 17
76 63 65 74 -3 4 -19 -3 -35 -15 -17 -12 -38 -21 -47 -21 -26 0 -14 33 18 48
39 19 33 32 -11 25 -48 -8 -54 -18 -46 -78 4 -27 8 -72 9 -100 2 -59 23 -103
64 -136 16 -13 28 -27 25 -30 -2 -4 1 -11 7 -15 8 -5 9 -3 4 6 -6 9 -2 10 16
4 54 -19 241 3 356 42 222 75 435 251 565 469 37 61 98 189 98 204 0 5 9 11
21 14 18 5 20 2 14 -26 -13 -59 -82 -192 -143 -272 -102 -136 -229 -250 -365
-329 -27 -15 -47 -30 -44 -32 10 -10 208 125 277 188 25 23 101 107 132 145
54 68 115 182 147 274 16 44 25 56 50 64 l30 11 -27 25 c-37 35 -163 119 -178
119 -20 0 -173 -244 -161 -256 3 -3 17 2 31 12 15 9 29 14 33 11 7 -7 -44
-116 -64 -135 -7 -7 -13 -18 -13 -23 0 -16 -142 -151 -215 -206 -265 -196
-562 -271 -639 -161 -23 33 -19 45 6 21 79 -70 225 -52 433 53 115 59 201 120
293 208 72 70 124 139 137 186 6 20 5 23 -6 13 -16 -15 -29 -17 -29 -3 0 5 25
52 55 104 l54 95 -20 49 c-30 72 -78 97 -184 96 l-80 -2 45 14 c66 20 144 18
190 -6 22 -11 40 -24 40 -28 0 -4 7 -15 15 -26 13 -18 15 -17 39 10 l24 29 49
-23 48 -23 -45 40 c-25 22 -63 44 -87 50 -58 15 -166 13 -238 -3 -33 -8 -61
-13 -63 -11 -13 13 76 122 128 156 36 24 20 32 -17 9z m-743 -986 c0 -2 -9 0
-20 6 -11 6 -20 13 -20 16 0 2 9 0 20 -6 11 -6 20 -13 20 -16z"/>
<path d="M1161 1927 c-13 -21 -12 -21 5 -5 10 10 16 20 13 22 -3 3 -11 -5 -18
-17z"/>
<path d="M1570 1860 c20 -13 33 -13 25 0 -3 6 -14 10 -23 10 -15 0 -15 -2 -2
-10z"/>
<path d="M751 1834 c-27 -35 -26 -42 7 -50 15 -3 40 -10 55 -14 15 -5 33 -7
41 -4 36 14 92 -30 128 -100 43 -85 3 -230 -95 -340 -43 -49 -43 -51 -36 -100
5 -27 6 -61 2 -75 -5 -21 1 -18 33 21 93 112 143 226 151 349 11 151 -38 244
-143 275 -31 9 -58 13 -61 10 -4 -3 2 -6 12 -6 10 0 16 -3 13 -6 -4 -3 -27 -2
-52 1 -48 8 -60 27 -34 53 7 7 9 12 6 12 -4 0 -16 -12 -27 -26z m248 -138 c-2
-2 -13 8 -23 22 l-19 27 24 -22 c12 -12 21 -24 18 -27z m21 -51 c0 -5 -5 -3
-10 5 -5 8 -10 20 -10 25 0 6 5 3 10 -5 5 -8 10 -19 10 -25z m7 -57 c-3 -8 -6
-5 -6 6 -1 11 2 17 5 13 3 -3 4 -12 1 -19z"/>
<path d="M1620 1846 c0 -2 16 -13 35 -25 19 -11 35 -26 35 -32 0 -7 -9 -4 -22
7 l-23 19 18 -22 c11 -12 25 -19 31 -17 8 3 21 -14 34 -43 13 -30 17 -49 10
-52 -5 -2 14 -25 43 -52 52 -48 53 -48 28 -58 l-24 -10 27 0 c40 -1 41 12 3
49 -19 19 -35 39 -35 46 0 25 -39 100 -66 130 -41 43 -94 77 -94 60z"/>
<path d="M1005 1823 c11 -3 31 -13 45 -23 47 -32 56 -34 35 -9 -29 35 -37 39
-70 38 -21 -1 -24 -3 -10 -6z"/>
<path d="M1121 1795 c0 -5 6 -21 14 -35 8 -14 14 -20 14 -15 0 6 -6 21 -14 35
-8 14 -14 21 -14 15z"/>
<path d="M1430 1796 c0 -2 7 -7 16 -10 8 -3 12 -2 9 4 -6 10 -25 14 -25 6z"/>
<path d="M1551 1729 c-18 -22 -31 -45 -28 -52 2 -6 15 7 28 30 13 23 31 44 39
45 10 2 11 6 4 10 -6 4 -25 -10 -43 -33z"/>
<path d="M1694 1741 c0 -10 8 -24 17 -29 16 -10 16 -9 2 19 -17 34 -19 35 -19
10z"/>
<path d="M1615 1740 c3 -5 11 -10 16 -10 6 0 7 5 4 10 -3 6 -11 10 -16 10 -6
0 -7 -4 -4 -10z"/>
<path d="M1650 1726 c0 -3 9 -10 20 -16 11 -6 20 -8 20 -6 0 3 -9 10 -20 16
-11 6 -20 8 -20 6z"/>
<path d="M924 1665 c-16 -14 -36 -27 -44 -30 -48 -15 -290 -301 -275 -325 3
-4 -2 -11 -11 -14 -9 -4 -14 -9 -11 -12 3 -3 -3 -21 -14 -40 -23 -43 -23 -44
0 -44 27 0 42 23 48 72 4 24 13 53 21 66 8 12 11 22 7 22 -12 0 46 72 105 128
30 30 92 81 138 114 45 33 82 64 82 69 0 19 -19 17 -46 -6z"/>
<path d="M1720 1478 c-29 -75 -75 -165 -90 -178 -3 -3 -17 -23 -32 -45 -43
-65 -123 -151 -193 -210 -192 -159 -398 -246 -590 -248 -107 -1 -95 -14 15
-16 172 -3 426 98 595 236 55 46 165 154 193 191 15 20 33 43 39 50 25 26 87
148 101 197 24 86 26 105 9 105 -9 0 -27 -31 -47 -82z"/>
<path d="M802 1185 c0 -16 2 -22 5 -12 2 9 2 23 0 30 -3 6 -5 -1 -5 -18z"/>
<path d="M1594 1079 c3 -17 6 -38 6 -45 0 -10 13 -14 40 -14 44 0 46 -2 54
-72 5 -43 3 -48 -14 -48 -23 0 -32 -13 -24 -34 8 -21 99 -23 107 -2 8 19 -13
179 -25 194 -6 6 -25 12 -43 12 -24 0 -34 5 -38 20 -4 15 -14 20 -37 20 -31 0
-32 -1 -26 -31z"/>
<path d="M1770 1051 c5 -11 10 -37 10 -58 0 -45 14 -63 48 -63 23 0 24 2 20
54 -5 65 -20 86 -60 86 -25 0 -27 -2 -18 -19z"/>
<path d="M1864 1053 c4 -9 9 -44 12 -77 3 -34 10 -76 16 -93 8 -28 14 -33 40
-33 27 0 29 2 24 28 -2 15 -8 53 -11 86 -5 46 -4 57 7 54 8 -3 17 -34 23 -84
l10 -79 33 -3 33 -3 -6 63 c-9 81 -24 141 -39 150 -6 4 -42 8 -80 8 -60 0 -67
-2 -62 -17z"/>
<path d="M1110 885 c-14 -8 -20 -14 -15 -14 6 0 21 6 35 14 14 8 21 14 15 14
-5 0 -21 -6 -35 -14z"/>
<path d="M1045 860 c-3 -5 -2 -10 4 -10 5 0 13 5 16 10 3 6 2 10 -4 10 -5 0
-13 -4 -16 -10z"/>
<path d="M985 840 c-13 -6 -15 -9 -5 -9 8 0 22 4 30 9 18 12 2 12 -25 0z"/>
<path d="M938 823 c7 -3 16 -2 19 1 4 3 -2 6 -13 5 -11 0 -14 -3 -6 -6z"/>
<path d="M670 810 c8 -5 22 -9 30 -9 10 0 8 3 -5 9 -27 12 -43 12 -25 0z"/>
<path d="M733 813 c9 -2 25 -2 35 0 9 3 1 5 -18 5 -19 0 -27 -2 -17 -5z"/>
<path d="M863 813 c9 -2 25 -2 35 0 9 3 1 5 -18 5 -19 0 -27 -2 -17 -5z"/>
<path d="M798 803 c6 -2 18 -2 25 0 6 3 1 5 -13 5 -14 0 -19 -2 -12 -5z"/>
<path d="M1693 763 c3 -10 8 -30 11 -45 6 -25 11 -28 45 -28 37 0 39 -2 45
-37 10 -65 8 -83 -12 -83 -25 0 -31 -7 -25 -31 4 -15 14 -19 54 -19 36 0 51 4
56 16 3 8 0 56 -7 105 -14 96 -23 109 -74 109 -16 0 -26 6 -26 15 0 11 -11 15
-36 15 -29 0 -34 -3 -31 -17z"/>
<path d="M524 728 c3 -13 6 -26 6 -30 0 -5 20 -8 45 -8 43 0 45 -1 45 -28 0
-16 5 -54 11 -85 11 -55 13 -57 44 -57 33 0 33 0 25 38 -4 20 -11 63 -15 95
-9 80 -28 97 -106 97 -59 0 -61 -1 -55 -22z"/>
<path d="M697 744 c-3 -3 -1 -17 5 -30 10 -20 18 -24 57 -24 l46 0 3 -60 c3
-49 0 -60 -12 -60 -15 0 -20 23 -19 93 0 13 -9 17 -34 17 -38 0 -37 4 -21
-107 l11 -83 33 0 c31 0 33 2 30 33 -2 17 -1 24 1 14 4 -14 13 -17 41 -15 33
3 37 6 41 33 5 46 -20 168 -37 183 -16 12 -133 17 -145 6z"/>
<path d="M885 733 c4 -10 10 -42 13 -70 4 -53 5 -53 39 -53 34 0 34 0 28 38
-14 84 -16 90 -38 96 -39 10 -50 7 -42 -11z"/>
<path d="M977 744 c-3 -3 -2 -16 3 -29 5 -13 12 -52 15 -87 10 -101 16 -108
96 -108 44 0 68 4 71 13 10 26 -22 192 -39 205 -20 14 -73 16 -73 2 0 -5 4
-10 9 -10 22 0 46 -150 25 -157 -11 -4 -34 81 -34 126 0 15 -5 32 -12 39 -13
13 -50 16 -61 6z"/>
<path d="M1168 744 c-4 -3 -2 -18 2 -34 5 -16 11 -60 15 -97 4 -37 12 -74 17
-80 16 -20 137 -17 145 3 10 27 -18 188 -36 201 -16 12 -133 18 -143 7z m106
-76 c9 -35 7 -98 -3 -98 -15 0 -19 12 -27 68 -5 43 -4 52 9 52 8 0 17 -10 21
-22z"/>
<path d="M1353 728 c3 -13 9 -44 12 -70 7 -45 9 -48 36 -48 27 0 29 2 29 43 0
58 -19 91 -54 95 -25 3 -28 1 -23 -20z"/>
<path d="M1448 745 c-3 -3 -3 -17 0 -30 4 -21 10 -25 38 -25 24 0 34 -5 34
-15 0 -9 -9 -15 -24 -15 -33 0 -35 -5 -27 -75 6 -57 8 -60 34 -63 l29 -3 -7
65 c-4 36 -3 66 1 66 5 0 9 -17 10 -38 1 -71 11 -92 45 -92 31 0 31 0 25 41
-4 22 -9 67 -13 100 -4 45 -11 64 -27 74 -19 14 -107 21 -118 10z"/>
<path d="M1604 734 c4 -9 11 -49 16 -88 18 -127 17 -126 55 -126 32 0 33 1 26
28 -5 15 -11 62 -15 105 -8 82 -19 97 -66 97 -16 0 -20 -4 -16 -16z"/>
<path d="M1874 728 c3 -13 6 -26 6 -30 0 -5 20 -8 44 -8 l43 0 7 -71 c10 -93
13 -99 48 -99 l30 0 -7 68 c-10 95 -23 140 -45 152 -10 5 -44 10 -76 10 -54 0
-56 -1 -50 -22z"/>
<path d="M537 673 c-3 -5 0 -41 6 -81 l11 -72 33 0 c30 0 32 2 27 28 -3 15 -8
50 -12 77 -6 45 -10 50 -34 53 -14 2 -28 -1 -31 -5z"/>
<path d="M1884 665 c-4 -9 -2 -34 5 -54 6 -21 11 -50 11 -65 0 -23 4 -26 36
-26 32 0 35 2 28 23 -4 12 -10 47 -13 77 -6 51 -8 55 -34 58 -18 2 -29 -2 -33
-13z"/>
</g>
</svg>
