<?xml version="1.0" standalone="no"?>
<!DOCTYPE svg PUBLIC "-//W3C//DTD SVG 20010904//EN"
 "http://www.w3.org/TR/2001/REC-SVG-20010904/DTD/svg10.dtd">
<svg version="1.0" xmlns="http://www.w3.org/2000/svg"
 width="256.000000pt" height="256.000000pt" viewBox="0 0 256.000000 256.000000"
 preserveAspectRatio="xMidYMid meet">

<g transform="translate(0.000000,256.000000) scale(0.100000,-0.100000)"
fill="#000000" stroke="none">
<path d="M713 1658 c4 -486 3 -470 52 -613 24 -69 69 -158 121 -236 45 -68
176 -207 241 -256 21 -15 40 -30 43 -34 18 -20 126 -89 140 -89 14 0 122 69
140 89 3 4 22 19 43 34 65 49 196 188 241 256 52 78 97 167 121 236 49 143 48
127 52 613 l4 462 -601 0 -601 0 4 -462z m324 420 c21 -18 74 -69 118 -113
l80 -80 -3 -173 -3 -173 -47 39 c-26 21 -58 46 -72 55 -86 59 -228 151 -302
196 l-88 54 0 113 0 114 140 0 139 0 38 -32z m457 -40 c88 -168 195 -440 227
-578 24 -105 14 -278 -23 -385 -38 -111 -88 -184 -88 -129 0 8 -7 28 -15 45
-13 25 -14 41 -4 112 15 100 -4 255 -46 385 -26 81 -97 228 -135 282 -11 15
-20 39 -20 52 0 31 -65 181 -80 186 -6 2 -14 -6 -17 -17 -3 -12 -9 -21 -13
-19 -3 2 -32 33 -64 71 l-57 67 149 0 148 0 38 -72z m-148 -138 l23 -55 1
-477 c0 -458 -1 -478 -18 -478 -18 0 -19 16 -25 233 -4 127 -8 336 -9 462 l-2
230 -7 -225 c-3 -124 -7 -332 -8 -462 l-1 -238 -25 0 -26 0 3 488 c3 486 3
487 26 535 13 27 28 47 34 45 5 -2 21 -28 34 -58z m-540 -174 c138 -61 336
-167 391 -210 l33 -27 0 -99 c0 -55 -3 -100 -6 -100 -3 0 -20 11 -37 24 -64
48 -269 140 -409 182 l-58 18 0 123 c0 68 1 123 3 123 2 0 39 -15 83 -34z
m684 -176 c53 -104 80 -216 87 -357 7 -142 0 -162 -39 -120 -23 24 -86 67
-100 67 -3 0 -8 -7 -10 -16 -3 -13 -6 -13 -21 -2 -15 11 -17 26 -15 93 l3 80
23 -43 c13 -24 26 -42 29 -39 3 3 -9 32 -26 63 l-31 58 0 185 0 186 36 -50
c20 -28 48 -75 64 -105z m-70 -690 c0 -19 -7 -20 -110 -20 -103 0 -110 1 -110
20 0 19 7 20 110 20 103 0 110 -1 110 -20z m-146 -55 c-25 -19 -34 -19 -34 0
0 10 10 15 27 15 26 0 26 -1 7 -15z m75 -12 c-17 -20 -18 -23 -3 -10 23 19 34
22 34 8 0 -20 -85 -36 -109 -21 -23 14 26 49 68 50 l34 0 -24 -27z m-89 -63
c0 -5 -4 -10 -10 -10 -5 0 -10 5 -10 10 0 6 5 10 10 10 6 0 10 -4 10 -10z
m120 -7 c0 -22 -88 -103 -111 -103 -32 0 -30 18 3 41 18 13 47 36 63 51 35 32
45 35 45 11z m-68 -16 c-20 -22 -58 -45 -48 -29 3 6 1 14 -5 18 -17 10 16 32
46 30 22 -1 23 -2 7 -19z m68 -62 c0 -15 -67 -41 -78 -31 -3 4 7 17 23 30 30
24 55 24 55 1z m20 -97 c0 -16 -9 -18 -90 -18 -79 0 -90 2 -90 18 0 15 11 17
90 18 81 1 90 -1 90 -18z"/>
<path d="M1450 1195 c0 -5 5 -17 10 -25 5 -8 10 -10 10 -5 0 6 -5 17 -10 25
-5 8 -10 11 -10 5z"/>
</g>
</svg>
