<?xml version="1.0" standalone="no"?>
<!DOCTYPE svg PUBLIC "-//W3C//DTD SVG 20010904//EN"
 "http://www.w3.org/TR/2001/REC-SVG-20010904/DTD/svg10.dtd">
<svg version="1.0" xmlns="http://www.w3.org/2000/svg"
 width="256.000000pt" height="256.000000pt" viewBox="0 0 256.000000 256.000000"
 preserveAspectRatio="xMidYMid meet">

<g transform="translate(0.000000,256.000000) scale(0.100000,-0.100000)"
fill="#000000" stroke="none">
<path d="M1135 2074 c-16 -3 -59 -14 -95 -26 -261 -84 -454 -283 -536 -553
-14 -47 -18 -94 -19 -215 0 -135 3 -164 23 -230 77 -244 262 -443 492 -527
119 -44 319 -56 458 -27 226 46 435 211 544 429 62 124 73 177 73 355 0 146
-3 173 -23 234 -88 262 -273 448 -532 536 -53 18 -93 23 -210 25 -80 2 -158 1
-175 -1z m149 -333 c-8 -9 -14 7 -19 55 l-5 49 14 -50 c8 -27 12 -52 10 -54z
m231 2 c-9 -37 -18 -20 -9 19 4 18 9 27 11 20 3 -7 2 -24 -2 -39z m-374 -133
c22 0 46 -29 53 -66 9 -42 38 -68 66 -59 18 6 20 3 17 -17 -2 -13 -2 -17 0
-10 6 17 10 16 53 -18 21 -16 55 -35 76 -42 31 -11 39 -18 39 -38 0 -19 6 -26
23 -28 21 -3 23 0 20 24 -3 26 1 29 57 46 36 11 83 37 120 66 33 25 65 50 70
54 6 4 24 18 40 31 67 51 67 47 -5 -28 -41 -43 -88 -91 -104 -106 -17 -16 -27
-33 -23 -41 4 -12 -6 -17 -49 -21 -29 -3 -72 -16 -94 -28 l-40 -23 -44 45
c-25 24 -47 43 -51 41 -3 -1 -18 4 -34 13 -23 11 -30 12 -34 2 -3 -8 -10 -7
-25 7 -22 19 -52 16 -52 -6 0 -9 3 -9 12 0 17 17 64 -20 71 -56 7 -36 53 -92
75 -92 30 0 47 -17 34 -32 -6 -8 -11 -33 -10 -56 0 -37 2 -41 16 -30 8 7 21
28 29 46 9 21 21 33 36 34 12 1 29 2 37 3 16 2 85 30 112 45 23 13 28 13 24
-2 -3 -7 -7 -26 -11 -41 -3 -16 -24 -48 -47 -73 -35 -38 -38 -44 -20 -44 37 0
70 58 107 186 3 10 246 146 252 141 1 -2 -25 -23 -58 -47 -34 -25 -75 -56 -93
-70 -17 -14 -43 -34 -58 -43 -24 -15 -26 -20 -17 -41 11 -23 13 -23 58 -11
155 44 226 63 229 61 2 -2 -130 -59 -229 -99 -32 -13 -36 -18 -31 -42 4 -26 7
-27 58 -23 29 1 54 0 54 -4 0 -5 0 -44 0 -88 l0 -80 -72 0 c-43 -1 -84 -6 -98
-14 -14 -8 -50 -47 -80 -87 -75 -99 -117 -131 -178 -137 -69 -6 -113 11 -172
69 -45 44 -55 49 -95 49 -52 0 -104 19 -151 55 -26 20 -45 25 -88 25 -49 0
-56 3 -56 19 0 11 12 29 27 40 14 12 23 24 19 28 -3 3 -59 6 -124 5 -125 -1
-126 -2 41 35 59 13 77 21 75 32 -2 11 -28 19 -98 28 -193 25 -196 28 -40 33
l145 5 3 28 c2 17 -1 27 -10 27 -17 0 -249 92 -244 97 2 2 60 -10 128 -26 69
-17 130 -31 136 -31 6 0 18 13 27 29 l15 29 -69 59 c-38 32 -77 65 -87 73 -51
40 -85 70 -80 70 4 0 49 -26 101 -57 52 -32 111 -68 132 -80 l37 -22 22 27
c13 15 20 31 15 37 -10 12 -153 234 -166 255 -18 31 36 -25 122 -126 48 -57
93 -104 98 -104 19 0 76 40 70 49 -3 5 5 12 17 14 13 2 3 5 -21 6 -69 2 -99
42 -69 91 10 16 7 31 -21 92 -49 109 -48 111 11 21 29 -46 60 -83 69 -83z
m249 107 c12 -21 12 -35 3 -79 -9 -42 -8 -58 3 -80 25 -48 20 -53 -45 -50
l-59 4 -6 36 c-10 60 -7 82 9 82 8 0 15 5 15 11 0 23 44 109 54 106 6 -2 18
-15 26 -30z m300 -54 c-19 -35 -59 -103 -77 -129 -10 -14 -53 -28 -53 -17 0 8
140 183 146 183 3 0 -5 -17 -16 -37z m-226 -189 c7 -19 -2 -37 -15 -29 -12 8
-12 45 0 45 5 0 12 -7 15 -16z m-807 -480 c-3 -3 -12 -4 -19 -1 -8 3 -5 6 6 6
11 1 17 -2 13 -5z m23 -65 c0 -9 -11 -24 -24 -32 -23 -15 -24 -15 -39 24 -8
21 -11 39 -6 39 5 0 12 -7 15 -15 9 -23 34 -18 34 8 0 18 2 19 10 7 5 -8 10
-22 10 -31z m1252 -20 c-4 -32 -12 -38 -45 -32 -33 6 -31 25 4 33 21 5 22 7 6
13 -10 4 -16 11 -12 16 3 6 15 7 28 2 15 -6 21 -16 19 -32z m-1210 -39 c3 -17
3 -31 2 -33 -2 -2 -19 -1 -39 1 -39 5 -48 22 -11 22 19 0 23 4 19 20 -4 13 0
20 10 20 9 0 16 -12 19 -30z m1176 -30 c4 -10 -3 -11 -24 -6 -35 9 -38 12 -30
25 8 13 48 -1 54 -19z m-1128 -56 c0 -15 -39 -39 -48 -30 -3 4 0 12 6 18 7 7
12 19 12 27 0 12 -3 12 -12 3 -15 -15 -38 -16 -38 -2 0 6 9 10 20 10 11 0 20
5 20 12 0 6 9 3 20 -7 11 -10 20 -24 20 -31z m1093 32 c15 -12 15 -15 2 -26
-10 -9 -15 -9 -15 -1 0 6 -7 11 -15 11 -8 0 -15 -4 -15 -10 0 -5 5 -10 10 -10
6 0 10 -7 10 -15 0 -18 -1 -18 -35 -1 l-28 15 28 25 c32 30 34 30 58 12z m-74
-70 c11 -14 8 -25 -17 -65 -1 -3 -13 6 -26 20 -22 22 -22 25 -7 41 20 21 35
22 50 4z m-949 -21 c14 -17 4 -55 -14 -55 -7 0 -23 11 -36 25 -22 24 -16 37 7
14 17 -17 37 -1 22 17 -7 8 -7 14 -1 14 5 0 15 -7 22 -15z m71 -43 c24 -20 21
-52 -6 -52 -18 0 -19 12 -3 28 9 9 9 12 -3 12 -8 0 -20 -5 -27 -12 -17 -17
-25 -3 -12 21 13 26 21 26 51 3z m779 -7 c17 -20 4 -32 -19 -18 -11 7 -23 8
-32 2 -27 -17 -34 -8 -9 11 30 24 44 25 60 5z m-715 -25 c3 -5 -3 -19 -13 -31
-24 -25 -39 -9 -20 21 14 22 24 25 33 10z m676 -13 c-1 -12 -15 -9 -19 4 -3 6
1 10 8 8 6 -3 11 -8 11 -12z m-620 -7 c15 -9 17 -15 9 -30 -6 -11 -17 -20 -26
-20 -11 0 -12 4 -4 19 8 16 6 22 -7 30 -24 14 2 14 28 1z m584 -10 c0 -8 -8
-16 -18 -18 -10 -2 -16 2 -15 8 2 7 -3 15 -11 18 -10 3 -13 -1 -8 -17 3 -11 1
-24 -5 -27 -5 -3 -12 3 -15 15 -3 12 -10 21 -17 21 -6 0 -4 5 4 10 23 15 85 8
85 -10z m-105 -15 c10 -12 10 -19 2 -27 -8 -8 -13 -7 -18 5 -9 24 -24 21 -24
-4 0 -27 -24 -20 -28 8 -2 14 3 23 15 26 33 8 40 7 53 -8z m-311 -14 c8 -5 11
-16 8 -25 -8 -20 -27 -21 -27 -1 0 9 -10 20 -22 25 -23 9 -23 9 2 9 14 0 31
-3 39 -8z m176 -11 c4 -11 11 -18 16 -14 6 3 8 12 5 20 -3 8 1 14 9 14 20 0
19 -36 -1 -44 -9 -3 -33 -6 -55 -6 -32 0 -39 3 -39 20 0 25 16 26 29 3 9 -16
10 -16 11 5 0 27 16 29 25 2z m-85 -10 c14 -26 -8 -36 -47 -22 -25 9 -26 10
-5 11 26 1 30 18 5 24 -11 3 -8 5 9 6 18 1 31 -6 38 -19z m-198 -12 c-7 -7
-12 -8 -12 -2 0 14 12 26 19 19 2 -3 -1 -11 -7 -17z m58 12 c0 -5 -4 -10 -10
-10 -5 0 -10 5 -10 10 0 6 5 10 10 10 6 0 10 -4 10 -10z"/>
<path d="M1101 1566 c-15 -18 -7 -52 16 -60 21 -8 21 -7 8 37 -9 34 -13 37
-24 23z"/>
<path d="M1156 1567 c3 -10 9 -15 12 -12 3 3 0 11 -7 18 -10 9 -11 8 -5 -6z"/>
<path d="M1746 731 c-3 -5 1 -11 9 -15 15 -6 29 7 18 18 -9 9 -21 8 -27 -3z"/>
</g>
</svg>
